<svg width="640" height="150" viewBox="0 0 640 150" fill="none" xmlns="http://www.w3.org/2000/svg">
<rect width="640" height="150" fill="white"/>
<path d="M14 119.5H625" stroke="#333333" stroke-width="0.5"/>
<path d="M14.25 131.5L13.0566 134H15.9434L14.75 131.5H14.25ZM14.25 119V131.75H14.75V119H14.25Z" fill="#333333"/>
<path d="M138.75 119.5C138.75 119.362 138.638 119.25 138.5 119.25C138.362 119.25 138.25 119.362 138.25 119.5H138.75ZM138.25 131L137.057 133.5H139.943L138.75 131H138.25ZM138.25 119.5V131.25H138.75V119.5H138.25Z" fill="#333333"/>
<path d="M258.75 119.5C258.75 119.362 258.638 119.25 258.5 119.25C258.362 119.25 258.25 119.362 258.25 119.5H258.75ZM258.25 131L257.057 133.5H259.943L258.75 131H258.25ZM258.25 119.5V131.25H258.75V119.5H258.25Z" fill="#333333"/>
<path d="M502.75 119.5C502.75 119.362 502.638 119.25 502.5 119.25C502.362 119.25 502.25 119.362 502.25 119.5H502.75ZM502.25 131L501.057 133.5H503.943L502.75 131H502.25ZM502.25 119.5V131.25H502.75V119.5H502.25Z" fill="#333333"/>
<path d="M382.75 119.5C382.75 119.362 382.638 119.25 382.5 119.25C382.362 119.25 382.25 119.362 382.25 119.5H382.75ZM382.25 131L381.057 133.5H383.943L382.75 131H382.25ZM382.25 119.5V131.25H382.75V119.5H382.25Z" fill="#333333"/>
<path d="M625.25 131.5L624.057 134H626.943L625.75 131.5H625.25ZM625.25 119V131.75H625.75V119H625.25Z" fill="#333333"/>
<path d="M57.9766 133H57.2805L59.9261 125.727H60.6364L63.282 133H62.5859L60.3061 126.59H60.2564L57.9766 133ZM58.4773 130.212H62.0852V130.809H58.4773V130.212ZM69.2186 128C69.1523 127.759 69.0552 127.532 68.9274 127.322C68.7995 127.109 68.6409 126.923 68.4515 126.764C68.2645 126.603 68.0479 126.478 67.8017 126.388C67.5578 126.298 67.2856 126.253 66.9849 126.253C66.5114 126.253 66.0877 126.376 65.7136 126.622C65.3395 126.868 65.0436 127.223 64.8258 127.688C64.6104 128.152 64.5027 128.71 64.5027 129.364C64.5027 130.015 64.6116 130.572 64.8294 131.036C65.0472 131.5 65.3455 131.857 65.7243 132.105C66.1054 132.351 66.541 132.474 67.0311 132.474C67.4785 132.474 67.8739 132.375 68.2172 132.176C68.5604 131.977 68.8279 131.693 69.0197 131.324C69.2138 130.955 69.3085 130.515 69.3038 130.006L69.5169 130.074H67.1873V129.477H69.9501V130.074C69.9501 130.694 69.8246 131.23 69.5737 131.683C69.3227 132.135 68.9783 132.484 68.5403 132.73C68.1023 132.976 67.5993 133.099 67.0311 133.099C66.3966 133.099 65.8414 132.947 65.3656 132.641C64.8897 132.334 64.5192 131.9 64.2541 131.342C63.9913 130.781 63.8599 130.121 63.8599 129.364C63.8599 128.793 63.9357 128.278 64.0872 127.819C64.2387 127.36 64.4529 126.967 64.7299 126.64C65.0093 126.313 65.3395 126.063 65.7207 125.891C66.1019 125.715 66.5233 125.628 66.9849 125.628C67.3826 125.628 67.746 125.691 68.0751 125.816C68.4065 125.942 68.6977 126.114 68.9487 126.335C69.202 126.552 69.4092 126.804 69.5701 127.091C69.7335 127.375 69.8436 127.678 69.9004 128H69.2186ZM77.5611 129.364C77.5611 130.121 77.4261 130.781 77.1562 131.342C76.8864 131.9 76.5147 132.334 76.0412 132.641C75.5701 132.947 75.0279 133.099 74.4148 133.099C73.8016 133.099 73.2583 132.947 72.7848 132.641C72.3137 132.334 71.9432 131.9 71.6733 131.342C71.4058 130.781 71.272 130.121 71.272 129.364C71.272 128.606 71.4058 127.948 71.6733 127.389C71.9432 126.828 72.3149 126.395 72.7884 126.089C73.2618 125.782 73.804 125.628 74.4148 125.628C75.0279 125.628 75.5701 125.782 76.0412 126.089C76.5147 126.395 76.8864 126.828 77.1562 127.389C77.4261 127.948 77.5611 128.606 77.5611 129.364ZM76.9148 129.364C76.9148 128.713 76.8059 128.155 76.5881 127.691C76.3703 127.225 76.0732 126.868 75.6967 126.622C75.3203 126.376 74.893 126.253 74.4148 126.253C73.9389 126.253 73.5128 126.376 73.1364 126.622C72.7599 126.868 72.4616 127.223 72.2415 127.688C72.0237 128.152 71.9148 128.71 71.9148 129.364C71.9148 130.015 72.0237 130.572 72.2415 131.036C72.4593 131.5 72.7564 131.857 73.1328 132.105C73.5092 132.351 73.9366 132.474 74.4148 132.474C74.893 132.474 75.3203 132.351 75.6967 132.105C76.0755 131.859 76.3738 131.504 76.5916 131.04C76.8094 130.573 76.9171 130.015 76.9148 129.364ZM83.1159 127.545C83.0757 127.141 82.897 126.819 82.5797 126.58C82.2625 126.34 81.8636 126.221 81.383 126.221C81.0444 126.221 80.7462 126.279 80.4881 126.395C80.2324 126.511 80.0312 126.672 79.8844 126.878C79.74 127.081 79.6678 127.313 79.6678 127.574C79.6678 127.766 79.7092 127.934 79.7921 128.078C79.8749 128.223 79.9862 128.347 80.1259 128.451C80.2679 128.553 80.4242 128.64 80.5946 128.714C80.7675 128.787 80.9415 128.849 81.1167 128.898L81.8837 129.119C82.1157 129.183 82.3477 129.264 82.5797 129.364C82.8117 129.463 83.0236 129.589 83.2154 129.74C83.4095 129.889 83.5646 130.073 83.6806 130.29C83.7989 130.506 83.8581 130.765 83.8581 131.068C83.8581 131.456 83.7575 131.806 83.5563 132.116C83.3551 132.426 83.0662 132.672 82.6898 132.854C82.3134 133.034 81.8624 133.124 81.3368 133.124C80.842 133.124 80.4123 133.043 80.0478 132.879C79.6832 132.714 79.3967 132.485 79.1884 132.194C78.9801 131.903 78.8629 131.565 78.8368 131.182H79.5186C79.5423 131.468 79.637 131.711 79.8027 131.91C79.9685 132.109 80.1839 132.26 80.449 132.364C80.7142 132.466 81.0101 132.517 81.3368 132.517C81.699 132.517 82.021 132.457 82.3027 132.336C82.5868 132.213 82.8094 132.042 82.9703 131.825C83.1337 131.604 83.2154 131.349 83.2154 131.058C83.2154 130.811 83.1515 130.605 83.0236 130.44C82.8958 130.272 82.717 130.131 82.4874 130.017C82.2601 129.903 81.9962 129.803 81.6955 129.715L80.8255 129.46C80.2549 129.289 79.8122 129.054 79.4973 128.753C79.1825 128.452 79.025 128.069 79.025 127.602C79.025 127.212 79.1292 126.868 79.3375 126.572C79.5482 126.274 79.8323 126.042 80.1898 125.876C80.5497 125.708 80.9533 125.624 81.4007 125.624C81.8529 125.624 82.253 125.707 82.601 125.873C82.949 126.039 83.2248 126.267 83.4284 126.558C83.6344 126.847 83.7445 127.176 83.7587 127.545H83.1159ZM85.0158 126.324V125.727H90.2892V126.324H87.9846V133H87.3205V126.324H85.0158ZM97.4439 129.364C97.4439 130.121 97.3089 130.781 97.0391 131.342C96.7692 131.9 96.3975 132.334 95.924 132.641C95.4529 132.947 94.9107 133.099 94.2976 133.099C93.6844 133.099 93.1411 132.947 92.6676 132.641C92.1965 132.334 91.826 131.9 91.5561 131.342C91.2886 130.781 91.1548 130.121 91.1548 129.364C91.1548 128.606 91.2886 127.948 91.5561 127.389C91.826 126.828 92.1977 126.395 92.6712 126.089C93.1446 125.782 93.6868 125.628 94.2976 125.628C94.9107 125.628 95.4529 125.782 95.924 126.089C96.3975 126.395 96.7692 126.828 97.0391 127.389C97.3089 127.948 97.4439 128.606 97.4439 129.364ZM96.7976 129.364C96.7976 128.713 96.6887 128.155 96.4709 127.691C96.2531 127.225 95.956 126.868 95.5795 126.622C95.2031 126.376 94.7758 126.253 94.2976 126.253C93.8217 126.253 93.3956 126.376 93.0192 126.622C92.6428 126.868 92.3445 127.223 92.1243 127.688C91.9065 128.152 91.7976 128.71 91.7976 129.364C91.7976 130.015 91.9065 130.572 92.1243 131.036C92.3421 131.5 92.6392 131.857 93.0156 132.105C93.392 132.351 93.8194 132.474 94.2976 132.474C94.7758 132.474 95.2031 132.351 95.5795 132.105C95.9583 131.859 96.2566 131.504 96.4744 131.04C96.6922 130.573 96.8 130.015 96.7976 129.364Z" fill="#333333"/>
<path d="M174.915 127.545C174.875 127.141 174.696 126.819 174.379 126.58C174.061 126.34 173.662 126.221 173.182 126.221C172.843 126.221 172.545 126.279 172.287 126.395C172.031 126.511 171.83 126.672 171.683 126.878C171.539 127.081 171.467 127.313 171.467 127.574C171.467 127.766 171.508 127.934 171.591 128.078C171.674 128.223 171.785 128.347 171.925 128.451C172.067 128.553 172.223 128.64 172.393 128.714C172.566 128.787 172.74 128.849 172.915 128.898L173.683 129.119C173.915 129.183 174.147 129.264 174.379 129.364C174.611 129.463 174.822 129.589 175.014 129.74C175.208 129.889 175.363 130.073 175.479 130.29C175.598 130.506 175.657 130.765 175.657 131.068C175.657 131.456 175.556 131.806 175.355 132.116C175.154 132.426 174.865 132.672 174.489 132.854C174.112 133.034 173.661 133.124 173.136 133.124C172.641 133.124 172.211 133.043 171.847 132.879C171.482 132.714 171.196 132.485 170.987 132.194C170.779 131.903 170.662 131.565 170.636 131.182H171.317C171.341 131.468 171.436 131.711 171.602 131.91C171.767 132.109 171.983 132.26 172.248 132.364C172.513 132.466 172.809 132.517 173.136 132.517C173.498 132.517 173.82 132.457 174.102 132.336C174.386 132.213 174.608 132.042 174.769 131.825C174.933 131.604 175.014 131.349 175.014 131.058C175.014 130.811 174.95 130.605 174.822 130.44C174.695 130.272 174.516 130.131 174.286 130.017C174.059 129.903 173.795 129.803 173.494 129.715L172.624 129.46C172.054 129.289 171.611 129.054 171.296 128.753C170.981 128.452 170.824 128.069 170.824 127.602C170.824 127.212 170.928 126.868 171.136 126.572C171.347 126.274 171.631 126.042 171.989 125.876C172.348 125.708 172.752 125.624 173.2 125.624C173.652 125.624 174.052 125.707 174.4 125.873C174.748 126.039 175.024 126.267 175.227 126.558C175.433 126.847 175.543 127.176 175.558 127.545H174.915ZM177.255 133V125.727H181.474V126.324H177.919V129.062H181.25V129.658H177.919V132.403H181.545V133H177.255ZM182.752 126.324V125.727H188.026V126.324H185.721V133H185.057V126.324H182.752ZM189.521 133V125.727H193.739V126.324H190.185V129.062H193.516V129.658H190.185V132.403H193.81V133H189.521ZM195.458 125.727H196.225L198.864 132.062H198.928L201.566 125.727H202.333V133H201.708V127.13H201.651L199.197 133H198.594L196.14 127.13H196.083V133H195.458V125.727ZM204.267 133V125.727H206.721C207.194 125.727 207.588 125.81 207.903 125.976C208.22 126.142 208.458 126.368 208.617 126.654C208.775 126.941 208.855 127.266 208.855 127.631C208.855 127.934 208.804 128.193 208.702 128.408C208.6 128.624 208.462 128.798 208.287 128.93C208.111 129.063 207.916 129.159 207.701 129.218V129.275C207.935 129.291 208.162 129.374 208.382 129.523C208.603 129.67 208.784 129.876 208.926 130.141C209.068 130.406 209.139 130.724 209.139 131.093C209.139 131.46 209.057 131.788 208.894 132.077C208.73 132.363 208.48 132.589 208.141 132.755C207.805 132.918 207.376 133 206.855 133H204.267ZM204.931 132.403H206.855C207.417 132.403 207.831 132.279 208.098 132.031C208.368 131.782 208.503 131.469 208.503 131.093C208.503 130.816 208.436 130.565 208.301 130.34C208.168 130.113 207.98 129.933 207.736 129.8C207.495 129.668 207.211 129.602 206.884 129.602H204.931V132.403ZM204.931 129.012H206.781C207.067 129.012 207.318 128.953 207.534 128.835C207.749 128.716 207.917 128.553 208.038 128.344C208.159 128.136 208.219 127.898 208.219 127.631C208.219 127.245 208.094 126.931 207.843 126.69C207.592 126.446 207.218 126.324 206.721 126.324H204.931V129.012ZM210.741 133V125.727H213.089C213.605 125.727 214.036 125.821 214.381 126.008C214.729 126.192 214.991 126.449 215.166 126.778C215.344 127.105 215.432 127.48 215.432 127.904C215.432 128.328 215.344 128.702 215.166 129.026C214.991 129.351 214.73 129.604 214.385 129.786C214.039 129.969 213.611 130.06 213.099 130.06H211.1V129.452H213.081C213.46 129.452 213.775 129.39 214.026 129.264C214.279 129.139 214.468 128.96 214.591 128.728C214.716 128.496 214.779 128.221 214.779 127.904C214.779 127.587 214.716 127.31 214.591 127.073C214.465 126.834 214.276 126.649 214.023 126.519C213.772 126.389 213.454 126.324 213.071 126.324H211.405V133H210.741ZM213.948 129.719L215.738 133H214.971L213.199 129.719H213.948ZM223.012 129.364C223.012 130.121 222.877 130.781 222.607 131.342C222.338 131.9 221.966 132.334 221.492 132.641C221.021 132.947 220.479 133.099 219.866 133.099C219.253 133.099 218.709 132.947 218.236 132.641C217.765 132.334 217.394 131.9 217.124 131.342C216.857 130.781 216.723 130.121 216.723 129.364C216.723 128.606 216.857 127.948 217.124 127.389C217.394 126.828 217.766 126.395 218.24 126.089C218.713 125.782 219.255 125.628 219.866 125.628C220.479 125.628 221.021 125.782 221.492 126.089C221.966 126.395 222.338 126.828 222.607 127.389C222.877 127.948 223.012 128.606 223.012 129.364ZM222.366 129.364C222.366 128.713 222.257 128.155 222.039 127.691C221.821 127.225 221.524 126.868 221.148 126.622C220.771 126.376 220.344 126.253 219.866 126.253C219.39 126.253 218.964 126.376 218.588 126.622C218.211 126.868 217.913 127.223 217.693 127.688C217.475 128.152 217.366 128.71 217.366 129.364C217.366 130.015 217.475 130.572 217.693 131.036C217.91 131.5 218.208 131.857 218.584 132.105C218.96 132.351 219.388 132.474 219.866 132.474C220.344 132.474 220.771 132.351 221.148 132.105C221.527 131.859 221.825 131.504 222.043 131.04C222.261 130.573 222.368 130.015 222.366 129.364Z" fill="#333333"/>
<path d="M302.928 129.364C302.928 130.121 302.793 130.781 302.523 131.342C302.254 131.9 301.882 132.334 301.408 132.641C300.937 132.947 300.395 133.099 299.782 133.099C299.169 133.099 298.625 132.947 298.152 132.641C297.681 132.334 297.31 131.9 297.04 131.342C296.773 130.781 296.639 130.121 296.639 129.364C296.639 128.606 296.773 127.948 297.04 127.389C297.31 126.828 297.682 126.395 298.156 126.089C298.629 125.782 299.171 125.628 299.782 125.628C300.395 125.628 300.937 125.782 301.408 126.089C301.882 126.395 302.254 126.828 302.523 127.389C302.793 127.948 302.928 128.606 302.928 129.364ZM302.282 129.364C302.282 128.713 302.173 128.155 301.955 127.691C301.737 127.225 301.44 126.868 301.064 126.622C300.688 126.376 300.26 126.253 299.782 126.253C299.306 126.253 298.88 126.376 298.504 126.622C298.127 126.868 297.829 127.223 297.609 127.688C297.391 128.152 297.282 128.71 297.282 129.364C297.282 130.015 297.391 130.572 297.609 131.036C297.826 131.5 298.124 131.857 298.5 132.105C298.876 132.351 299.304 132.474 299.782 132.474C300.26 132.474 300.688 132.351 301.064 132.105C301.443 131.859 301.741 131.504 301.959 131.04C302.177 130.573 302.284 130.015 302.282 129.364ZM309.382 125.727H310.046V130.543C310.046 131.037 309.93 131.48 309.698 131.871C309.466 132.259 309.142 132.566 308.728 132.79C308.316 133.013 307.837 133.124 307.29 133.124C306.745 133.124 306.266 133.012 305.852 132.787C305.437 132.562 305.114 132.255 304.882 131.867C304.65 131.479 304.534 131.037 304.534 130.543V125.727H305.198V130.496C305.198 130.882 305.285 131.227 305.458 131.53C305.63 131.83 305.873 132.067 306.186 132.24C306.5 132.413 306.869 132.499 307.29 132.499C307.711 132.499 308.079 132.413 308.394 132.24C308.709 132.067 308.952 131.83 309.122 131.53C309.295 131.227 309.382 130.882 309.382 130.496V125.727ZM311.535 126.324V125.727H316.809V126.324H314.504V133H313.84V126.324H311.535ZM323.151 125.727H323.815V130.543C323.815 131.037 323.699 131.48 323.467 131.871C323.235 132.259 322.912 132.566 322.498 132.79C322.086 133.013 321.606 133.124 321.059 133.124C320.515 133.124 320.036 133.012 319.621 132.787C319.207 132.562 318.884 132.255 318.652 131.867C318.42 131.479 318.304 131.037 318.304 130.543V125.727H318.968V130.496C318.968 130.882 319.054 131.227 319.227 131.53C319.4 131.83 319.643 132.067 319.955 132.24C320.27 132.413 320.638 132.499 321.059 132.499C321.481 132.499 321.849 132.413 322.164 132.24C322.479 132.067 322.721 131.83 322.892 131.53C323.065 131.227 323.151 130.882 323.151 130.496V125.727ZM325.745 133V125.727H328.199C328.673 125.727 329.067 125.81 329.382 125.976C329.699 126.142 329.937 126.368 330.095 126.654C330.254 126.941 330.333 127.266 330.333 127.631C330.333 127.934 330.282 128.193 330.181 128.408C330.079 128.624 329.94 128.798 329.765 128.93C329.59 129.063 329.395 129.159 329.179 129.218V129.275C329.414 129.291 329.641 129.374 329.861 129.523C330.081 129.67 330.262 129.876 330.404 130.141C330.546 130.406 330.617 130.724 330.617 131.093C330.617 131.46 330.536 131.788 330.372 132.077C330.209 132.363 329.958 132.589 329.619 132.755C329.283 132.918 328.855 133 328.334 133H325.745ZM326.409 132.403H328.334C328.895 132.403 329.309 132.279 329.577 132.031C329.847 131.782 329.982 131.469 329.982 131.093C329.982 130.816 329.914 130.565 329.779 130.34C329.647 130.113 329.459 129.933 329.215 129.8C328.973 129.668 328.689 129.602 328.362 129.602H326.409V132.403ZM326.409 129.012H328.259C328.546 129.012 328.797 128.953 329.012 128.835C329.228 128.716 329.396 128.553 329.517 128.344C329.637 128.136 329.698 127.898 329.698 127.631C329.698 127.245 329.572 126.931 329.321 126.69C329.07 126.446 328.696 126.324 328.199 126.324H326.409V129.012ZM332.22 133V125.727H334.567C335.083 125.727 335.514 125.821 335.86 126.008C336.208 126.192 336.469 126.449 336.645 126.778C336.822 127.105 336.911 127.48 336.911 127.904C336.911 128.328 336.822 128.702 336.645 129.026C336.469 129.351 336.209 129.604 335.863 129.786C335.518 129.969 335.089 130.06 334.578 130.06H332.578V129.452H334.56C334.939 129.452 335.254 129.39 335.505 129.264C335.758 129.139 335.946 128.96 336.069 128.728C336.195 128.496 336.257 128.221 336.257 127.904C336.257 127.587 336.195 127.31 336.069 127.073C335.944 126.834 335.754 126.649 335.501 126.519C335.25 126.389 334.933 126.324 334.549 126.324H332.884V133H332.22ZM335.426 129.719L337.216 133H336.449L334.677 129.719H335.426ZM344.491 129.364C344.491 130.121 344.356 130.781 344.086 131.342C343.816 131.9 343.444 132.334 342.971 132.641C342.5 132.947 341.958 133.099 341.344 133.099C340.731 133.099 340.188 132.947 339.714 132.641C339.243 132.334 338.873 131.9 338.603 131.342C338.335 130.781 338.202 130.121 338.202 129.364C338.202 128.606 338.335 127.948 338.603 127.389C338.873 126.828 339.245 126.395 339.718 126.089C340.192 125.782 340.734 125.628 341.344 125.628C341.958 125.628 342.5 125.782 342.971 126.089C343.444 126.395 343.816 126.828 344.086 127.389C344.356 127.948 344.491 128.606 344.491 129.364ZM343.844 129.364C343.844 128.713 343.736 128.155 343.518 127.691C343.3 127.225 343.003 126.868 342.626 126.622C342.25 126.376 341.823 126.253 341.344 126.253C340.869 126.253 340.442 126.376 340.066 126.622C339.69 126.868 339.391 127.223 339.171 127.688C338.953 128.152 338.844 128.71 338.844 129.364C338.844 130.015 338.953 130.572 339.171 131.036C339.389 131.5 339.686 131.857 340.062 132.105C340.439 132.351 340.866 132.474 341.344 132.474C341.823 132.474 342.25 132.351 342.626 132.105C343.005 131.859 343.304 131.504 343.521 131.04C343.739 130.573 343.847 130.015 343.844 129.364Z" fill="#333333"/>
<path d="M424.63 125.727V133H423.984L419.687 126.91H419.63V133H418.966V125.727H419.609L423.92 131.825H423.977V125.727H424.63ZM432.526 129.364C432.526 130.121 432.391 130.781 432.121 131.342C431.851 131.9 431.48 132.334 431.006 132.641C430.535 132.947 429.993 133.099 429.38 133.099C428.766 133.099 428.223 132.947 427.75 132.641C427.279 132.334 426.908 131.9 426.638 131.342C426.371 130.781 426.237 130.121 426.237 129.364C426.237 128.606 426.371 127.948 426.638 127.389C426.908 126.828 427.28 126.395 427.753 126.089C428.227 125.782 428.769 125.628 429.38 125.628C429.993 125.628 430.535 125.782 431.006 126.089C431.48 126.395 431.851 126.828 432.121 127.389C432.391 127.948 432.526 128.606 432.526 129.364ZM431.88 129.364C431.88 128.713 431.771 128.155 431.553 127.691C431.335 127.225 431.038 126.868 430.662 126.622C430.285 126.376 429.858 126.253 429.38 126.253C428.904 126.253 428.478 126.376 428.101 126.622C427.725 126.868 427.426 127.223 427.206 127.688C426.989 128.152 426.88 128.71 426.88 129.364C426.88 130.015 426.989 130.572 427.206 131.036C427.424 131.5 427.721 131.857 428.098 132.105C428.474 132.351 428.901 132.474 429.38 132.474C429.858 132.474 430.285 132.351 430.662 132.105C431.04 131.859 431.339 131.504 431.556 131.04C431.774 130.573 431.882 130.015 431.88 129.364ZM433.801 125.727L436.074 132.137H436.137L438.41 125.727H439.106L436.461 133H435.75L433.105 125.727H433.801ZM440.353 133V125.727H444.571V126.324H441.017V129.062H444.348V129.658H441.017V132.403H444.642V133H440.353ZM446.29 125.727H447.057L449.696 132.062H449.76L452.398 125.727H453.165V133H452.54V127.13H452.483L450.029 133H449.426L446.972 127.13H446.915V133H446.29V125.727ZM455.099 133V125.727H457.553C458.026 125.727 458.42 125.81 458.735 125.976C459.052 126.142 459.29 126.368 459.449 126.654C459.607 126.941 459.687 127.266 459.687 127.631C459.687 127.934 459.636 128.193 459.534 128.408C459.432 128.624 459.294 128.798 459.119 128.93C458.943 129.063 458.748 129.159 458.533 129.218V129.275C458.767 129.291 458.994 129.374 459.214 129.523C459.435 129.67 459.616 129.876 459.758 130.141C459.9 130.406 459.971 130.724 459.971 131.093C459.971 131.46 459.889 131.788 459.726 132.077C459.562 132.363 459.312 132.589 458.973 132.755C458.637 132.918 458.208 133 457.688 133H455.099ZM455.763 132.403H457.688C458.249 132.403 458.663 132.279 458.93 132.031C459.2 131.782 459.335 131.469 459.335 131.093C459.335 130.816 459.268 130.565 459.133 130.34C459 130.113 458.812 129.933 458.568 129.8C458.327 129.668 458.043 129.602 457.716 129.602H455.763V132.403ZM455.763 129.012H457.613C457.899 129.012 458.15 128.953 458.366 128.835C458.581 128.716 458.749 128.553 458.87 128.344C458.991 128.136 459.051 127.898 459.051 127.631C459.051 127.245 458.926 126.931 458.675 126.69C458.424 126.446 458.05 126.324 457.553 126.324H455.763V129.012ZM461.573 133V125.727H463.921C464.437 125.727 464.868 125.821 465.213 126.008C465.561 126.192 465.823 126.449 465.998 126.778C466.176 127.105 466.264 127.48 466.264 127.904C466.264 128.328 466.176 128.702 465.998 129.026C465.823 129.351 465.562 129.604 465.217 129.786C464.871 129.969 464.443 130.06 463.931 130.06H461.932V129.452H463.914C464.292 129.452 464.607 129.39 464.858 129.264C465.111 129.139 465.3 128.96 465.423 128.728C465.548 128.496 465.611 128.221 465.611 127.904C465.611 127.587 465.548 127.31 465.423 127.073C465.297 126.834 465.108 126.649 464.855 126.519C464.604 126.389 464.286 126.324 463.903 126.324H462.237V133H461.573ZM464.78 129.719L466.57 133H465.803L464.031 129.719H464.78ZM473.844 129.364C473.844 130.121 473.709 130.781 473.439 131.342C473.17 131.9 472.798 132.334 472.324 132.641C471.853 132.947 471.311 133.099 470.698 133.099C470.085 133.099 469.541 132.947 469.068 132.641C468.597 132.334 468.226 131.9 467.956 131.342C467.689 130.781 467.555 130.121 467.555 129.364C467.555 128.606 467.689 127.948 467.956 127.389C468.226 126.828 468.598 126.395 469.072 126.089C469.545 125.782 470.087 125.628 470.698 125.628C471.311 125.628 471.853 125.782 472.324 126.089C472.798 126.395 473.17 126.828 473.439 127.389C473.709 127.948 473.844 128.606 473.844 129.364ZM473.198 129.364C473.198 128.713 473.089 128.155 472.871 127.691C472.653 127.225 472.356 126.868 471.98 126.622C471.604 126.376 471.176 126.253 470.698 126.253C470.222 126.253 469.796 126.376 469.42 126.622C469.043 126.868 468.745 127.223 468.525 127.688C468.307 128.152 468.198 128.71 468.198 129.364C468.198 130.015 468.307 130.572 468.525 131.036C468.742 131.5 469.04 131.857 469.416 132.105C469.792 132.351 470.22 132.474 470.698 132.474C471.176 132.474 471.604 132.351 471.98 132.105C472.359 131.859 472.657 131.504 472.875 131.04C473.093 130.573 473.2 130.015 473.198 129.364Z" fill="#333333"/>
<path d="M549.097 133H546.966V125.727H549.224C549.918 125.727 550.511 125.872 551.004 126.161C551.498 126.449 551.877 126.864 552.14 127.403C552.403 127.943 552.534 128.591 552.534 129.346C552.534 130.108 552.399 130.763 552.129 131.31C551.862 131.854 551.471 132.272 550.957 132.563C550.446 132.854 549.826 133 549.097 133ZM547.63 132.403H549.058C549.683 132.403 550.206 132.28 550.627 132.034C551.049 131.788 551.365 131.436 551.575 130.979C551.786 130.522 551.891 129.978 551.891 129.346C551.889 128.719 551.785 128.179 551.579 127.727C551.375 127.274 551.072 126.928 550.67 126.686C550.27 126.445 549.775 126.324 549.185 126.324H547.63V132.403ZM554.144 133V125.727H558.362V126.324H554.808V129.062H558.139V129.658H554.808V132.403H558.433V133H554.144ZM559.794 133V132.499L563.831 126.324H559.772V125.727H564.623V126.228L560.582 132.403H564.659V133H559.794ZM566.263 133V125.727H570.482V126.324H566.927V129.062H570.258V129.658H566.927V132.403H570.553V133H566.263ZM572.2 125.727H572.967L575.606 132.062H575.67L578.308 125.727H579.075V133H578.45V127.13H578.393L575.94 133H575.336L572.882 127.13H572.825V133H572.2V125.727ZM581.009 133V125.727H583.463C583.936 125.727 584.33 125.81 584.645 125.976C584.962 126.142 585.2 126.368 585.359 126.654C585.518 126.941 585.597 127.266 585.597 127.631C585.597 127.934 585.546 128.193 585.444 128.408C585.342 128.624 585.204 128.798 585.029 128.93C584.854 129.063 584.658 129.159 584.443 129.218V129.275C584.677 129.291 584.904 129.374 585.125 129.523C585.345 129.67 585.526 129.876 585.668 130.141C585.81 130.406 585.881 130.724 585.881 131.093C585.881 131.46 585.799 131.788 585.636 132.077C585.473 132.363 585.222 132.589 584.883 132.755C584.547 132.918 584.118 133 583.598 133H581.009ZM581.673 132.403H583.598C584.159 132.403 584.573 132.279 584.841 132.031C585.11 131.782 585.245 131.469 585.245 131.093C585.245 130.816 585.178 130.565 585.043 130.34C584.91 130.113 584.722 129.933 584.478 129.8C584.237 129.668 583.953 129.602 583.626 129.602H581.673V132.403ZM581.673 129.012H583.523C583.81 129.012 584.06 128.953 584.276 128.835C584.491 128.716 584.659 128.553 584.78 128.344C584.901 128.136 584.961 127.898 584.961 127.631C584.961 127.245 584.836 126.931 584.585 126.69C584.334 126.446 583.96 126.324 583.463 126.324H581.673V129.012ZM587.483 133V125.727H589.831C590.347 125.727 590.778 125.821 591.123 126.008C591.471 126.192 591.733 126.449 591.908 126.778C592.086 127.105 592.175 127.48 592.175 127.904C592.175 128.328 592.086 128.702 591.908 129.026C591.733 129.351 591.473 129.604 591.127 129.786C590.781 129.969 590.353 130.06 589.841 130.06H587.842V129.452H589.824C590.202 129.452 590.517 129.39 590.768 129.264C591.022 129.139 591.21 128.96 591.333 128.728C591.458 128.496 591.521 128.221 591.521 127.904C591.521 127.587 591.458 127.31 591.333 127.073C591.207 126.834 591.018 126.649 590.765 126.519C590.514 126.389 590.197 126.324 589.813 126.324H588.148V133H587.483ZM590.69 129.719L592.48 133H591.713L589.941 129.719H590.69ZM599.754 129.364C599.754 130.121 599.619 130.781 599.35 131.342C599.08 131.9 598.708 132.334 598.235 132.641C597.763 132.947 597.221 133.099 596.608 133.099C595.995 133.099 595.452 132.947 594.978 132.641C594.507 132.334 594.137 131.9 593.867 131.342C593.599 130.781 593.465 130.121 593.465 129.364C593.465 128.606 593.599 127.948 593.867 127.389C594.137 126.828 594.508 126.395 594.982 126.089C595.455 125.782 595.997 125.628 596.608 125.628C597.221 125.628 597.763 125.782 598.235 126.089C598.708 126.395 599.08 126.828 599.35 127.389C599.619 127.948 599.754 128.606 599.754 129.364ZM599.108 129.364C599.108 128.713 598.999 128.155 598.781 127.691C598.564 127.225 598.267 126.868 597.89 126.622C597.514 126.376 597.086 126.253 596.608 126.253C596.132 126.253 595.706 126.376 595.33 126.622C594.953 126.868 594.655 127.223 594.435 127.688C594.217 128.152 594.108 128.71 594.108 129.364C594.108 130.015 594.217 130.572 594.435 131.036C594.653 131.5 594.95 131.857 595.326 132.105C595.703 132.351 596.13 132.474 596.608 132.474C597.086 132.474 597.514 132.351 597.89 132.105C598.269 131.859 598.567 131.504 598.785 131.04C599.003 130.573 599.11 130.015 599.108 129.364Z" fill="#333333"/>
<path d="M141 89L534 89" stroke="#EFB626" stroke-opacity="0.15" stroke-width="50" stroke-linecap="round"/>
<path d="M324 89L330 89" stroke="#EFB626" stroke-width="50" stroke-linecap="square"/>
<path d="M116 53.6667C115.264 53.6667 114.667 54.2636 114.667 55C114.667 55.7364 115.264 56.3333 116 56.3333C116.736 56.3333 117.333 55.7364 117.333 55C117.333 54.2636 116.736 53.6667 116 53.6667ZM115.75 55L115.75 120L116.25 120L116.25 55L115.75 55Z" fill="#333333"/>
<path d="M299 53.6667C298.264 53.6667 297.667 54.2636 297.667 55C297.667 55.7364 298.264 56.3333 299 56.3333C299.736 56.3333 300.333 55.7364 300.333 55C300.333 54.2636 299.736 53.6667 299 53.6667ZM298.75 55L298.75 120L299.25 120L299.25 55L298.75 55Z" fill="#333333"/>
<path d="M355 53.6667C354.264 53.6667 353.667 54.2636 353.667 55C353.667 55.7364 354.264 56.3333 355 56.3333C355.736 56.3333 356.333 55.7364 356.333 55C356.333 54.2636 355.736 53.6667 355 53.6667ZM354.75 55L354.75 120L355.25 120L355.25 55L354.75 55Z" fill="#333333"/>
<path d="M560 53.6667C559.264 53.6667 558.667 54.2636 558.667 55C558.667 55.7364 559.264 56.3333 560 56.3333C560.736 56.3333 561.333 55.7364 561.333 55C561.333 54.2636 560.736 53.6667 560 53.6667ZM559.75 55L559.75 120L560.25 120L560.25 55L559.75 55Z" fill="#333333"/>
<path d="M290.899 21.5455V47H290.104V22.3906H289.955L284.486 26.0199V25.0753L289.805 21.5455H290.899ZM305.152 21.5455V47H304.357V22.3906H304.207L298.739 26.0199V25.0753L304.058 21.5455H305.152Z" fill="#5F5F5F"/>
<path d="M337.232 47V46.3537L345.385 36.7088C346.661 35.2008 347.655 33.9413 348.368 32.9304C349.08 31.9112 349.582 31.008 349.872 30.2209C350.162 29.4254 350.307 28.6051 350.307 27.7599C350.307 26.6496 350.05 25.6594 349.536 24.7894C349.031 23.9194 348.335 23.2358 347.448 22.7386C346.57 22.2415 345.567 21.9929 344.44 21.9929C343.264 21.9929 342.228 22.2622 341.333 22.8008C340.438 23.3311 339.738 24.0437 339.233 24.9386C338.727 25.8335 338.474 26.8236 338.474 27.9091H337.679C337.679 26.6745 337.965 25.5517 338.537 24.5408C339.117 23.5217 339.912 22.7096 340.923 22.1048C341.942 21.4999 343.115 21.1974 344.44 21.1974C345.716 21.1974 346.856 21.4833 347.858 22.055C348.861 22.6185 349.652 23.3974 350.232 24.3917C350.812 25.3777 351.102 26.5005 351.102 27.7599C351.102 28.6963 350.945 29.5911 350.63 30.4446C350.323 31.2981 349.797 32.2509 349.051 33.3033C348.314 34.3556 347.291 35.6565 345.982 37.206L338.474 46.1051V46.2045H352.594V47H337.232ZM365.383 47.348C364.066 47.348 362.902 47.0621 361.891 46.4904C360.88 45.9187 360.088 45.1274 359.517 44.1165C358.945 43.1056 358.663 41.9455 358.672 40.6364H359.467C359.459 42.3764 359.997 43.7975 361.083 44.8995C362.176 46.0015 363.61 46.5526 365.383 46.5526C366.717 46.5526 367.894 46.2253 368.913 45.5707C369.932 44.9161 370.728 44.0253 371.299 42.8984C371.871 41.7715 372.153 40.5038 372.145 39.0952C372.136 37.5871 371.817 36.2821 371.188 35.18C370.566 34.078 369.737 33.2287 368.702 32.6321C367.674 32.0355 366.551 31.7372 365.333 31.7372C364.331 31.7372 363.424 31.9278 362.612 32.3089C361.799 32.6901 361.099 33.179 360.511 33.7756L359.318 33.5767L360.809 21.5455H372.095V22.3409H361.505L360.213 32.8807H360.312C360.95 32.2924 361.692 31.8242 362.537 31.4762C363.382 31.1199 364.314 30.9418 365.333 30.9418C366.701 30.9418 367.96 31.2815 369.112 31.9609C370.272 32.6321 371.2 33.5808 371.896 34.8072C372.6 36.0252 372.948 37.4545 372.94 39.0952C372.932 40.6695 372.604 42.0781 371.958 43.321C371.312 44.5639 370.421 45.5458 369.286 46.2667C368.151 46.9876 366.85 47.348 365.383 47.348Z" fill="#5F5F5F"/>
</svg>
