<svg xmlns="http://www.w3.org/2000/svg" viewBox="0 0 369.47 458.97"><g id="baseUrna"><rect width="369.47" height="458.97" rx="7.92" style="fill:#e6e6e6"/></g><g id="cabecalho"><rect x="34.64" y="20.74" width="298.08" height="75.12" rx="4.87" style="fill:#fff"/><text transform="translate(130.4 52.07)" style="font-size:25px;fill:#2a2f39;font-family:Arial-BoldMT, Arial;font-weight:700">JUSTIÇ<tspan x="88.9" y="0" style="letter-spacing:-0.037109375em">A</tspan><tspan x="106.03" y="0"> </tspan><tspan x="-17.36" y="30">ELEI</tspan><tspan x="38.2" y="30" style="letter-spacing:-0.018046875em">T</tspan><tspan x="53.02" y="30">ORA</tspan><tspan x="108.58" y="30" style="letter-spacing:-0.0180859375em">L</tspan></text></g><g id="baseTeclado"><rect x="34.64" y="108.58" width="298.08" height="319.52" rx="4.99" style="fill:#666"/></g><g id="numeros"><rect x="225.76" y="131.62" width="49.84" height="36.15" rx="1.86" style="fill:#1a1a1a"/><rect x="225.76" y="126.03" width="49.84" height="36.15" rx="1.86" style="fill:#333"/><rect x="85.36" y="187.64" width="49.84" height="36.15" rx="1.86" style="fill:#1a1a1a"/><rect x="85.36" y="182.04" width="49.84" height="36.15" rx="1.86" style="fill:#333"/><rect x="155.56" y="187.64" width="49.84" height="36.15" rx="1.86" style="fill:#1a1a1a"/><rect x="155.56" y="182.04" width="49.84" height="36.15" rx="1.86" style="fill:#333"/><rect x="226.76" y="188.64" width="49.84" height="36.15" rx="1.86" style="fill:#1a1a1a"/><rect x="226.76" y="183.04" width="49.84" height="36.15" rx="1.86" style="fill:#333"/><rect x="86.36" y="249.65" width="49.84" height="36.15" rx="1.86" style="fill:#1a1a1a"/><rect x="86.36" y="244.06" width="49.84" height="36.15" rx="1.86" style="fill:#333"/><rect x="156.56" y="247.65" width="49.84" height="36.15" rx="1.86" style="fill:#1a1a1a"/><rect x="156.56" y="242.06" width="49.84" height="36.15" rx="1.86" style="fill:#333"/><rect x="227.76" y="247.65" width="49.84" height="36.15" rx="1.86" style="fill:#1a1a1a"/><rect x="227.76" y="242.06" width="49.84" height="36.15" rx="1.86" style="fill:#333"/><rect x="157.56" y="309.67" width="49.84" height="36.15" rx="1.86" style="fill:#1a1a1a"/><rect x="157.56" y="304.08" width="49.84" height="36.15" rx="1.86" style="fill:#333"/><text transform="translate(231.18 155.53)" style="font-size:32px;fill:#f2f2f2;font-family:Arial-BoldMT, Arial;font-weight:700">3</text><text transform="translate(89.57 212.74)" style="font-size:32px;fill:#f2f2f2;font-family:Arial-BoldMT, Arial;font-weight:700">4</text><text transform="translate(161.33 212.74)" style="font-size:32px;fill:#f2f2f2;font-family:Arial-BoldMT, Arial;font-weight:700">5</text><text transform="translate(231.18 213.98)" style="font-size:32px;fill:#f2f2f2;font-family:Arial-BoldMT, Arial;font-weight:700">6</text><text transform="translate(90.57 273.57)" style="font-size:32px;fill:#f2f2f2;font-family:Arial-BoldMT, Arial;font-weight:700">7</text><text transform="translate(162.33 273.57)" style="font-size:32px;fill:#f2f2f2;font-family:Arial-BoldMT, Arial;font-weight:700">8</text><text transform="translate(233.18 271.57)" style="font-size:32px;fill:#f2f2f2;font-family:Arial-BoldMT, Arial;font-weight:700">9</text><text transform="translate(161.33 334.01)" style="font-size:32px;fill:#f2f2f2;font-family:Arial-BoldMT, Arial;font-weight:700">0</text></g><g id="numero2"><rect x="156.03" y="131.43" width="49.84" height="36.15" rx="1.86" style="fill:#1a1a1a"/><rect x="156.03" y="125.84" width="49.84" height="36.15" rx="1.86" style="fill:#333"/><text transform="translate(161.33 155.53)" style="font-size:32px;fill:#f2f2f2;font-family:Arial-BoldMT, Arial;font-weight:700">2</text></g><g id="numero1"><rect x="84.8" y="131.43" width="49.84" height="36.15" rx="1.86" style="fill:#1a1a1a"/><rect x="84.8" y="125.84" width="49.84" height="36.15" rx="1.86" style="fill:#333"/><text transform="translate(88.57 155.53)" style="font-size:32px;fill:#f2f2f2;font-family:Arial-BoldMT, Arial;font-weight:700">1</text></g><g id="botaoBranco"><rect x="51.94" y="373.29" width="73.26" height="34.9" rx="2.08" style="fill:#ccc"/><rect x="51.94" y="367.69" width="73.26" height="34.9" rx="2.08" style="fill:#fff"/><path d="M202.81,406.18V393.29h3.79a3.73,3.73,0,0,1,1.82.38,2.69,2.69,0,0,1,1.1,1.16,3.57,3.57,0,0,1,.43,1.75,3.33,3.33,0,0,1-.37,1.59,2.88,2.88,0,0,1-1,1.15,2.73,2.73,0,0,1,1.39,1.14,3.68,3.68,0,0,1,.5,2,4.45,4.45,0,0,1-.45,2.05,3,3,0,0,1-1.23,1.29,4.67,4.67,0,0,1-2.1.4Zm1.33-7.47h2.19a3.9,3.9,0,0,0,1.22-.13,1.48,1.48,0,0,0,.8-.62,2.12,2.12,0,0,0,.29-1.18,2.33,2.33,0,0,0-.26-1.15,1.4,1.4,0,0,0-.68-.64,4.44,4.44,0,0,0-1.53-.18h-2Zm0,6h2.52a3.72,3.72,0,0,0,1.23-.16,1.69,1.69,0,0,0,.87-.75,2.63,2.63,0,0,0,.3-1.32,2.49,2.49,0,0,0-.29-1.23,1.77,1.77,0,0,0-.77-.74,3.63,3.63,0,0,0-1.52-.23h-2.34Z" transform="translate(-143.58 -20.51)"/><path d="M212.26,406.18V393.29h4.47a4.51,4.51,0,0,1,2.07.36,2.7,2.7,0,0,1,1.1,1.2,4.31,4.31,0,0,1,.43,1.95,3.67,3.67,0,0,1-.73,2.36,3.35,3.35,0,0,1-2.11,1.15,3.33,3.33,0,0,1,.85.72,8.83,8.83,0,0,1,1,1.64l1.77,3.51h-1.68l-1.35-2.68a15.94,15.94,0,0,0-1.18-2.12,1.82,1.82,0,0,0-1.82-.92h-1.54v5.72Zm1.33-7.2h2.87a3.32,3.32,0,0,0,1.43-.24,1.74,1.74,0,0,0,.77-.75,2.37,2.37,0,0,0,.29-1.18,2.1,2.1,0,0,0-.55-1.54,2.16,2.16,0,0,0-1.62-.55h-3.19Z" transform="translate(-143.58 -20.51)"/><path d="M221.33,406.18l3.9-12.89h1.43l4.13,12.89h-1.53l-1.17-3.91h-4.25l-1.1,3.91Zm2.9-5.29h3.44l-1-3.57c-.32-1.1-.56-2-.71-2.67a19.8,19.8,0,0,1-.56,2.46Z" transform="translate(-143.58 -20.51)"/><path d="M231.81,406.18V393.29h1.37l5.3,10.14V393.29h1.28v12.89h-1.37L233.09,396v10.14Z" transform="translate(-143.58 -20.51)"/><path d="M249.19,401.66l1.35.43a6.09,6.09,0,0,1-1.56,3.24,3.78,3.78,0,0,1-2.71,1.07,4,4,0,0,1-2.4-.72,5,5,0,0,1-1.63-2.3,10.1,10.1,0,0,1-.63-3.74,9.14,9.14,0,0,1,.63-3.6,5.11,5.11,0,0,1,1.72-2.22,4.09,4.09,0,0,1,2.42-.76,3.64,3.64,0,0,1,2.52.95,5.25,5.25,0,0,1,1.47,2.8l-1.31.39c-.45-1.78-1.35-2.68-2.7-2.68a2.87,2.87,0,0,0-1.75.54,3.66,3.66,0,0,0-1.18,1.69,8,8,0,0,0-.44,2.89,7.09,7.09,0,0,0,.89,4,2.71,2.71,0,0,0,2.36,1.33,2.53,2.53,0,0,0,1.89-.82A4.46,4.46,0,0,0,249.19,401.66Z" transform="translate(-143.58 -20.51)"/><path d="M251.83,399.9a8.12,8.12,0,0,1,1.38-5.07,4.24,4.24,0,0,1,3.46-1.77,4.1,4.1,0,0,1,2.43.79,5.24,5.24,0,0,1,1.74,2.3,9.1,9.1,0,0,1,.65,3.59,8.05,8.05,0,0,1-1.25,4.67,4.21,4.21,0,0,1-7.18-.05A7.86,7.86,0,0,1,251.83,399.9Zm1.38,0a6,6,0,0,0,1,3.7,2.93,2.93,0,0,0,4.9,0,6.43,6.43,0,0,0,1-3.91,8.15,8.15,0,0,0-.51-3,3.74,3.74,0,0,0-1.19-1.61,2.83,2.83,0,0,0-1.74-.6,3,3,0,0,0-2.48,1.32A6.81,6.81,0,0,0,253.21,399.92Z" transform="translate(-143.58 -20.51)"/></g><g id="botaoCorrige"><rect x="147.85" y="374.29" width="73.26" height="34.9" rx="2.08" style="fill:#f15a24"/><rect x="147.85" y="368.69" width="73.26" height="34.9" rx="2.08" style="fill:#fbb03b"/><path d="M303.83,401.52l1.33.42a6,6,0,0,1-1.54,3.19,3.71,3.71,0,0,1-2.67,1.05,3.93,3.93,0,0,1-2.36-.71,4.93,4.93,0,0,1-1.6-2.26,9.77,9.77,0,0,1-.63-3.68A8.9,8.9,0,0,1,297,396a5,5,0,0,1,1.69-2.19,4.12,4.12,0,0,1,2.39-.74,3.57,3.57,0,0,1,2.47.94,5.07,5.07,0,0,1,1.45,2.75l-1.29.38c-.44-1.75-1.33-2.63-2.66-2.63a2.86,2.86,0,0,0-1.72.53,3.54,3.54,0,0,0-1.17,1.66,8,8,0,0,0-.43,2.84,7,7,0,0,0,.88,3.91,2.68,2.68,0,0,0,2.33,1.3,2.48,2.48,0,0,0,1.86-.8A4.35,4.35,0,0,0,303.83,401.52Z" transform="translate(-143.58 -20.51)"/><path d="M306.43,399.79a7.92,7.92,0,0,1,1.37-5,4.14,4.14,0,0,1,3.4-1.75,4,4,0,0,1,2.4.78,5.21,5.21,0,0,1,1.71,2.26,8.83,8.83,0,0,1,.64,3.53,7.88,7.88,0,0,1-1.23,4.59,4.14,4.14,0,0,1-7.07-.05A7.69,7.69,0,0,1,306.43,399.79Zm1.36,0a5.88,5.88,0,0,0,1,3.64,2.9,2.9,0,0,0,4.83,0,6.41,6.41,0,0,0,1-3.85,8.09,8.09,0,0,0-.5-2.92,3.55,3.55,0,0,0-1.18-1.58,2.79,2.79,0,0,0-1.7-.59,2.94,2.94,0,0,0-2.46,1.3A6.75,6.75,0,0,0,307.79,399.81Z" transform="translate(-143.58 -20.51)"/><path d="M317.61,406V393.29H322a4.58,4.58,0,0,1,2,.35,2.66,2.66,0,0,1,1.08,1.18,4.18,4.18,0,0,1,.42,1.92,3.63,3.63,0,0,1-.71,2.32,3.3,3.3,0,0,1-2.08,1.13,3.25,3.25,0,0,1,.84.71,9.07,9.07,0,0,1,1,1.61l1.73,3.45h-1.65l-1.33-2.63a16.26,16.26,0,0,0-1.16-2.09,2.27,2.27,0,0,0-.76-.72,2.39,2.39,0,0,0-1-.19h-1.52V406Zm1.32-7.08h2.83a3.41,3.41,0,0,0,1.4-.23,1.7,1.7,0,0,0,.76-.74,2.29,2.29,0,0,0,.29-1.16,2.05,2.05,0,0,0-.54-1.51,2.13,2.13,0,0,0-1.6-.55h-3.14Z" transform="translate(-143.58 -20.51)"/><path d="M327.64,406V393.29h4.41a4.58,4.58,0,0,1,2,.35,2.66,2.66,0,0,1,1.08,1.18,4.18,4.18,0,0,1,.42,1.92,3.63,3.63,0,0,1-.71,2.32,3.3,3.3,0,0,1-2.08,1.13,3.43,3.43,0,0,1,.84.71,8.51,8.51,0,0,1,1,1.61l1.74,3.45h-1.65l-1.33-2.63a16.26,16.26,0,0,0-1.16-2.09,2.37,2.37,0,0,0-.76-.72,2.39,2.39,0,0,0-1-.19H329V406Zm1.32-7.08h2.83a3.41,3.41,0,0,0,1.4-.23,1.7,1.7,0,0,0,.76-.74,2.29,2.29,0,0,0,.28-1.16,2,2,0,0,0-.53-1.51,2.13,2.13,0,0,0-1.6-.55H329Z" transform="translate(-143.58 -20.51)"/><path d="M337.93,406V393.29h1.31V406Z" transform="translate(-143.58 -20.51)"/><path d="M346.23,401v-1.5h4.21v4.71a7.42,7.42,0,0,1-2,1.48,4.82,4.82,0,0,1-2.12.5,4.64,4.64,0,0,1-2.6-.76,5.21,5.21,0,0,1-1.81-2.23,8.46,8.46,0,0,1-.66-3.51,9,9,0,0,1,.67-3.62,5.1,5.1,0,0,1,1.75-2.27,4.54,4.54,0,0,1,2.57-.73,4,4,0,0,1,1.91.43,3.69,3.69,0,0,1,1.35,1.2,5.9,5.9,0,0,1,.79,2.13l-1.18.42a4.48,4.48,0,0,0-.61-1.6,2.44,2.44,0,0,0-1-.84,2.91,2.91,0,0,0-1.34-.3,3.12,3.12,0,0,0-1.86.55,3.72,3.72,0,0,0-1.26,1.71,7.37,7.37,0,0,0-.48,2.83,6,6,0,0,0,1,3.81,3.25,3.25,0,0,0,2.65,1.26,3.78,3.78,0,0,0,1.59-.38,4.09,4.09,0,0,0,1.3-.93V401Z" transform="translate(-143.58 -20.51)"/><path d="M352.38,406V393.29h7.19v1.49H353.7v3.88h5.5v1.49h-5.5v4.32h6.1V406Z" transform="translate(-143.58 -20.51)"/></g><g id="botaoVerde"><rect x="242.76" y="363.7" width="72.57" height="46.11" rx="1.91" style="fill:#084420"/><rect x="242.76" y="355.31" width="72.57" height="46.11" rx="1.91" style="fill:#36995e"/><path d="M395.86,389.5l1.2.48a7.47,7.47,0,0,1-1.4,3.63,3.05,3.05,0,0,1-2.42,1.19,3.11,3.11,0,0,1-2.15-.8,5.76,5.76,0,0,1-1.46-2.57,13.72,13.72,0,0,1-.57-4.18,12.42,12.42,0,0,1,.57-4,5.62,5.62,0,0,1,1.54-2.49,3.24,3.24,0,0,1,2.17-.84,2.92,2.92,0,0,1,2.25,1.07,6.31,6.31,0,0,1,1.32,3.12l-1.17.44c-.41-2-1.21-3-2.42-3a2.21,2.21,0,0,0-1.57.61,4.14,4.14,0,0,0-1.06,1.88,10.91,10.91,0,0,0-.4,3.24,9.69,9.69,0,0,0,.8,4.44,2.4,2.4,0,0,0,2.12,1.48,2.07,2.07,0,0,0,1.69-.91A5.64,5.64,0,0,0,395.86,389.5Z" transform="translate(-143.58 -20.51)"/><path d="M398.22,387.54a10.79,10.79,0,0,1,1.24-5.67,3.62,3.62,0,0,1,3.1-2,3.19,3.19,0,0,1,2.18.89,5.86,5.86,0,0,1,1.56,2.57,12.25,12.25,0,0,1,.58,4,10.75,10.75,0,0,1-1.11,5.22,3.43,3.43,0,0,1-6.44-.06A10.41,10.41,0,0,1,398.22,387.54Zm1.24,0a8,8,0,0,0,.9,4.14,2.37,2.37,0,0,0,4.39,0,8.52,8.52,0,0,0,.9-4.36,11.36,11.36,0,0,0-.46-3.33,4.18,4.18,0,0,0-1.07-1.79,2.21,2.21,0,0,0-1.55-.68,2.57,2.57,0,0,0-2.24,1.48A9.24,9.24,0,0,0,399.46,387.56Z" transform="translate(-143.58 -20.51)"/><path d="M408.36,394.55v-14.4h1.23l4.76,11.33V380.15h1.14v14.4h-1.22l-4.75-11.33v11.33Z" transform="translate(-143.58 -20.51)"/><path d="M417.61,394.55v-14.4h6.11v1.7h-4.91v4.46h4.24V388h-4.24v6.54Z" transform="translate(-143.58 -20.51)"/><path d="M425.48,394.55v-14.4h1.19v14.4Z" transform="translate(-143.58 -20.51)"/><path d="M428.76,394.55v-14.4h4a3.38,3.38,0,0,1,1.86.4,2.79,2.79,0,0,1,1,1.34,5.66,5.66,0,0,1,.39,2.18,4.78,4.78,0,0,1-.66,2.64,2.87,2.87,0,0,1-1.89,1.28,3.59,3.59,0,0,1,.77.81,10.48,10.48,0,0,1,.94,1.83l1.58,3.92h-1.5l-1.21-3a21.25,21.25,0,0,0-1.06-2.37,2.39,2.39,0,0,0-.69-.82,1.79,1.79,0,0,0-.94-.21H430v6.39Zm1.2-8h2.57a2.46,2.46,0,0,0,1.28-.27,1.83,1.83,0,0,0,.69-.84,3,3,0,0,0,.26-1.32,2.71,2.71,0,0,0-.49-1.72,1.75,1.75,0,0,0-1.45-.62H430Z" transform="translate(-143.58 -20.51)"/><path d="M437.86,394.55v-14.4h1.8l2.14,10.2.43,2.13c.11-.53.27-1.3.49-2.31l2.17-10h1.61v14.4h-1.15V382.5l-2.64,12.05h-1.08L439,382.3v12.25Z" transform="translate(-143.58 -20.51)"/><path d="M447.43,394.55l3.49-14.4h1.28l3.71,14.4h-1.37l-1.05-4.36h-3.81l-1,4.36Zm2.6-5.91h3.08l-.94-4c-.29-1.23-.5-2.22-.64-3a26,26,0,0,1-.49,2.75Z" transform="translate(-143.58 -20.51)"/></g></svg>